# Blender v2.58 (sub 1) OBJ File: 'WholeThing.blend'
# www.blender.org
o Cone
v 0.898670 2.655716 0.022617
v 0.891582 2.679673 0.025078
v 0.884766 2.702710 0.032366
v 0.878485 2.723941 0.044200
v 0.872980 2.742550 0.060126
v 0.868461 2.757822 0.079533
v 0.865104 2.769171 0.101673
v 0.863037 2.776159 0.125697
v 0.862339 2.778518 0.150681
v 0.863037 2.776159 0.175665
v 0.865104 2.769171 0.199689
v 0.868461 2.757822 0.221830
v 0.872980 2.742550 0.241236
v 0.878485 2.723941 0.257162
v 0.884766 2.702710 0.268997
v 0.891582 2.679673 0.276284
v 0.898670 2.655716 0.278745
v 0.905758 2.631758 0.276284
v 0.912573 2.608721 0.268997
v 0.918854 2.587491 0.257162
v 0.924360 2.568882 0.241236
v 0.928878 2.553609 0.221830
v 0.932235 2.542261 0.199689
v 0.934303 2.535273 0.175665
v 0.935001 2.532914 0.150681
v 0.934303 2.535273 0.125697
v 0.932235 2.542261 0.101673
v 0.928878 2.553610 0.079533
v 0.924360 2.568882 0.060126
v 0.918854 2.587491 0.044200
v 0.912573 2.608722 0.032365
v 0.905758 2.631758 0.025078
v -0.642561 2.199741 0.150681
v 0.898670 2.655716 0.150681
vn -0.103519 0.071271 -0.992071
vn -0.157894 0.255062 -0.953946
vn -0.209113 0.428189 -0.879162
vn -0.255210 0.584000 -0.770592
vn -0.294413 0.716509 -0.632405
vn -0.325213 0.820614 -0.469924
vn -0.346429 0.892329 -0.289373
vn -0.357245 0.928886 -0.097711
vn -0.357245 0.928886 0.097711
vn -0.346429 0.892329 0.289373
vn -0.325213 0.820615 0.469924
vn -0.294413 0.716509 0.632405
vn -0.255210 0.584000 0.770592
vn -0.209113 0.428190 0.879162
vn -0.157893 0.255061 0.953946
vn -0.103519 0.071271 0.992071
vn -0.048079 -0.116120 0.992071
vn 0.006297 -0.299915 0.953945
vn 0.057516 -0.473040 0.879161
vn 0.103613 -0.628850 0.770592
vn 0.142815 -0.761355 0.632410
vn 0.173617 -0.865469 0.469917
vn 0.194831 -0.937176 0.289381
vn 0.205648 -0.973737 0.097702
vn 0.205648 -0.973737 -0.097702
vn 0.194831 -0.937176 -0.289381
vn 0.173615 -0.865465 -0.469924
vn 0.142815 -0.761359 -0.632405
vn 0.103611 -0.628846 -0.770596
vn 0.057516 -0.473039 -0.879162
vn 0.006296 -0.299913 -0.953946
vn -0.048079 -0.116119 -0.992071
vn 0.958914 0.283697 -0.000000
vn 0.958915 0.283695 -0.000000
vn 0.958915 0.283694 -0.000001
vn 0.958914 0.283696 0.000000
vn 0.958914 0.283697 0.000002
vn 0.958914 0.283695 -0.000001
vn 0.958914 0.283696 0.000001
vn 0.958914 0.283696 -0.000001
vn 0.958915 0.283695 0.000001
vn 0.958914 0.283697 -0.000002
vn 0.958915 0.283694 0.000001
vn 0.958915 0.283692 0.000000
vn 0.958914 0.283698 0.000001
vn 0.958914 0.283695 -0.000000
vn 0.958915 0.283695 -0.000002
vn 0.958914 0.283696 0.000002
vn 0.958914 0.283696 -0.000002
vn 0.958915 0.283693 0.000001
vn 0.958914 0.283698 -0.000001
vn 0.958915 0.283693 0.000000
usemtl (null)
s off
f 2//1 1//1 33//1
f 33//2 3//2 2//2
f 33//3 4//3 3//3
f 33//4 5//4 4//4
f 33//5 6//5 5//5
f 33//6 7//6 6//6
f 33//7 8//7 7//7
f 33//8 9//8 8//8
f 33//9 10//9 9//9
f 33//10 11//10 10//10
f 33//11 12//11 11//11
f 33//12 13//12 12//12
f 33//13 14//13 13//13
f 33//14 15//14 14//14
f 33//15 16//15 15//15
f 33//16 17//16 16//16
f 33//17 18//17 17//17
f 33//18 19//18 18//18
f 33//19 20//19 19//19
f 33//20 21//20 20//20
f 33//21 22//21 21//21
f 33//22 23//22 22//22
f 33//23 24//23 23//23
f 33//24 25//24 24//24
f 33//25 26//25 25//25
f 33//26 27//26 26//26
f 33//27 28//27 27//27
f 33//28 29//28 28//28
f 33//29 30//29 29//29
f 33//30 31//30 30//30
f 33//31 32//31 31//31
f 33//32 1//32 32//32
f 34//33 1//33 2//33
f 34//34 2//34 3//34
f 34//35 3//35 4//35
f 34//36 4//36 5//36
f 34//37 5//37 6//37
f 34//38 6//38 7//38
f 34//39 7//39 8//39
f 34//36 8//36 9//36
f 34//36 9//36 10//36
f 34//40 10//40 11//40
f 34//41 11//41 12//41
f 34//42 12//42 13//42
f 34//36 13//36 14//36
f 34//43 14//43 15//43
f 34//34 15//34 16//34
f 34//33 16//33 17//33
f 34//44 17//44 18//44
f 34//45 18//45 19//45
f 34//36 19//36 20//36
f 34//36 20//36 21//36
f 34//46 21//46 22//46
f 34//39 22//39 23//39
f 34//47 23//47 24//47
f 34//48 24//48 25//48
f 34//49 25//49 26//49
f 34//38 26//38 27//38
f 34//41 27//41 28//41
f 34//42 28//42 29//42
f 34//50 29//50 30//50
f 34//36 30//36 31//36
f 34//51 31//51 32//51
f 32//52 1//52 34//52
