# Blender v2.58 (sub 1) OBJ File: 'WholeThing.blend'
# www.blender.org
o Cylinder.001
v -0.585069 0.501463 -0.719814
v -0.412751 0.501463 -0.702842
v -0.247055 0.501463 -0.652579
v -0.094349 0.501463 -0.570956
v 0.039498 0.501463 -0.461110
v 0.149345 0.501463 -0.327262
v 0.230968 0.501463 -0.174556
v 0.281231 0.501463 -0.008861
v 0.298203 0.501463 0.163457
v 0.281231 0.501463 0.335775
v 0.230968 0.501463 0.501470
v 0.149345 0.501463 0.654176
v 0.039498 0.501463 0.788024
v -0.094349 0.501463 0.897870
v -0.247055 0.501463 0.979493
v -0.412751 0.501463 1.029756
v -0.585069 0.501463 1.046728
v -0.757387 0.501463 1.029756
v -0.923082 0.501463 0.979493
v -1.075788 0.501463 0.897870
v -1.209636 0.501463 0.788024
v -1.319482 0.501463 0.654176
v -1.401105 0.501463 0.501470
v -1.451368 0.501463 0.335774
v -1.468340 0.501463 0.163456
v -1.451368 0.501463 -0.008862
v -1.401104 0.501463 -0.174557
v -1.319481 0.501463 -0.327263
v -1.209635 0.501463 -0.461111
v -1.075787 0.501463 -0.570957
v -0.923081 0.501463 -0.652580
v -0.757385 0.501463 -0.702843
v -0.585068 0.690939 -0.543268
v -0.447192 0.690939 -0.529689
v -0.314615 0.690939 -0.489472
v -0.192432 0.690939 -0.424163
v -0.085337 0.690939 -0.336272
v 0.002553 0.690939 -0.229177
v 0.067861 0.690939 -0.106993
v 0.108078 0.690939 0.025584
v 0.121657 0.690939 0.163459
v 0.108077 0.690939 0.301334
v 0.067860 0.690939 0.433910
v 0.002552 0.690939 0.556094
v -0.085338 0.690939 0.663188
v -0.192433 0.690939 0.751078
v -0.314616 0.690939 0.816387
v -0.447193 0.690939 0.856603
v -0.585068 0.690939 0.870183
v -0.722943 0.690939 0.856604
v -0.855520 0.690939 0.816387
v -0.977703 0.690939 0.751079
v -1.084798 0.690939 0.663189
v -1.172688 0.690939 0.556095
v -1.237997 0.690939 0.433912
v -1.278214 0.690939 0.301335
v -1.291794 0.690939 0.163460
v -1.278215 0.690939 0.025585
v -1.237999 0.690939 -0.106992
v -1.172692 0.690939 -0.229175
v -1.084802 0.690939 -0.336270
v -0.977708 0.690939 -0.424161
v -0.855525 0.690939 -0.489470
v -0.722949 0.690939 -0.529688
v -0.585069 0.501463 0.163457
v -0.585069 0.690939 0.163457
vn -0.000000 -1.000000 0.000000
vn 0.000000 1.000000 -0.000000
vn 0.071873 0.679939 -0.729737
vn 0.212857 0.679939 -0.701694
vn 0.345661 0.679939 -0.646685
vn 0.465181 0.679940 -0.566824
vn 0.566824 0.679940 -0.465180
vn 0.646685 0.679939 -0.345660
vn 0.701694 0.679939 -0.212856
vn 0.729738 0.679939 -0.071872
vn 0.729738 0.679939 0.071874
vn 0.701694 0.679939 0.212857
vn 0.646685 0.679939 0.345661
vn 0.566825 0.679938 0.465181
vn 0.465181 0.679938 0.566825
vn 0.345661 0.679938 0.646686
vn 0.212857 0.679938 0.701695
vn 0.071873 0.679938 0.729739
vn -0.071873 0.679938 0.729739
vn -0.212857 0.679938 0.701695
vn -0.345661 0.679938 0.646686
vn -0.465181 0.679938 0.566825
vn -0.566824 0.679938 0.465181
vn -0.646685 0.679939 0.345661
vn -0.701694 0.679939 0.212857
vn -0.729738 0.679939 0.071874
vn -0.729738 0.679939 -0.071872
vn -0.701695 0.679939 -0.212855
vn -0.646686 0.679939 -0.345660
vn -0.566825 0.679939 -0.465180
vn -0.465182 0.679939 -0.566823
vn -0.345661 0.679940 -0.646684
vn -0.212858 0.679939 -0.701693
vn -0.071873 0.679940 -0.729737
usemtl (null)
s off
f 65//1 1//1 2//1
f 66//2 34//2 33//2
f 65//1 2//1 3//1
f 66//2 35//2 34//2
f 65//1 3//1 4//1
f 66//2 36//2 35//2
f 65//1 4//1 5//1
f 66//2 37//2 36//2
f 65//1 5//1 6//1
f 66//2 38//2 37//2
f 65//1 6//1 7//1
f 66//2 39//2 38//2
f 65//1 7//1 8//1
f 66//2 40//2 39//2
f 65//1 8//1 9//1
f 66//2 41//2 40//2
f 65//1 9//1 10//1
f 66//2 42//2 41//2
f 65//1 10//1 11//1
f 66//2 43//2 42//2
f 65//1 11//1 12//1
f 66//2 44//2 43//2
f 65//1 12//1 13//1
f 66//2 45//2 44//2
f 65//1 13//1 14//1
f 66//2 46//2 45//2
f 65//1 14//1 15//1
f 66//2 47//2 46//2
f 65//1 15//1 16//1
f 66//2 48//2 47//2
f 65//1 16//1 17//1
f 66//2 49//2 48//2
f 65//1 17//1 18//1
f 66//2 50//2 49//2
f 65//1 18//1 19//1
f 66//2 51//2 50//2
f 65//1 19//1 20//1
f 66//2 52//2 51//2
f 65//1 20//1 21//1
f 66//2 53//2 52//2
f 65//1 21//1 22//1
f 66//2 54//2 53//2
f 65//1 22//1 23//1
f 66//2 55//2 54//2
f 65//1 23//1 24//1
f 66//2 56//2 55//2
f 65//1 24//1 25//1
f 66//2 57//2 56//2
f 65//1 25//1 26//1
f 66//2 58//2 57//2
f 65//1 26//1 27//1
f 66//2 59//2 58//2
f 65//1 27//1 28//1
f 66//2 60//2 59//2
f 65//1 28//1 29//1
f 66//2 61//2 60//2
f 65//1 29//1 30//1
f 66//2 62//2 61//2
f 65//1 30//1 31//1
f 66//2 63//2 62//2
f 65//1 31//1 32//1
f 66//2 64//2 63//2
f 32//1 1//1 65//1
f 66//2 33//2 64//2
f 1//3 33//3 34//3
f 1//3 34//3 2//3
f 2//4 34//4 35//4
f 2//4 35//4 3//4
f 3//5 35//5 36//5
f 3//5 36//5 4//5
f 4//6 36//6 37//6
f 4//6 37//6 5//6
f 5//7 37//7 38//7
f 5//7 38//7 6//7
f 6//8 38//8 39//8
f 6//8 39//8 7//8
f 7//9 39//9 40//9
f 7//9 40//9 8//9
f 8//10 40//10 41//10
f 8//10 41//10 9//10
f 9//11 41//11 42//11
f 9//11 42//11 10//11
f 10//12 42//12 43//12
f 10//12 43//12 11//12
f 11//13 43//13 44//13
f 11//13 44//13 12//13
f 12//14 44//14 45//14
f 12//14 45//14 13//14
f 13//15 45//15 46//15
f 13//15 46//15 14//15
f 14//16 46//16 47//16
f 14//16 47//16 15//16
f 15//17 47//17 48//17
f 15//17 48//17 16//17
f 16//18 48//18 49//18
f 16//18 49//18 17//18
f 17//19 49//19 50//19
f 17//19 50//19 18//19
f 18//20 50//20 51//20
f 18//20 51//20 19//20
f 19//21 51//21 52//21
f 19//21 52//21 20//21
f 20//22 52//22 53//22
f 20//22 53//22 21//22
f 21//23 53//23 54//23
f 21//23 54//23 22//23
f 22//24 54//24 55//24
f 22//24 55//24 23//24
f 23//25 55//25 56//25
f 23//25 56//25 24//25
f 24//26 56//26 57//26
f 24//26 57//26 25//26
f 25//27 57//27 58//27
f 25//27 58//27 26//27
f 26//28 58//28 59//28
f 26//28 59//28 27//28
f 27//29 59//29 60//29
f 27//29 60//29 28//29
f 28//30 60//30 61//30
f 28//30 61//30 29//30
f 29//31 61//31 62//31
f 29//31 62//31 30//31
f 30//32 62//32 63//32
f 30//32 63//32 31//32
f 31//33 63//33 64//33
f 31//33 64//33 32//33
f 33//34 1//34 32//34
f 33//34 32//34 64//34
