# Blender v2.58 (sub 1) OBJ File: 'WholeThing.blend'
# www.blender.org
o Cylinder.003
v 1.911135 2.597359 0.199493
v 1.903265 2.602246 0.198580
v 1.895699 2.606946 0.195878
v 1.888725 2.611277 0.191490
v 1.882612 2.615073 0.185585
v 1.877596 2.618189 0.178390
v 1.873869 2.620504 0.170180
v 1.871573 2.621929 0.161273
v 1.870798 2.622411 0.152009
v 1.871573 2.621929 0.142746
v 1.873868 2.620504 0.133838
v 1.877596 2.618189 0.125629
v 1.882612 2.615073 0.118434
v 1.888725 2.611277 0.112529
v 1.895699 2.606946 0.108141
v 1.903265 2.602246 0.105439
v 1.911135 2.597359 0.104526
v 1.919004 2.592472 0.105439
v 1.926571 2.587772 0.108141
v 1.933545 2.583441 0.112529
v 1.939657 2.579645 0.118434
v 1.944674 2.576529 0.125629
v 1.948401 2.574214 0.133839
v 1.950697 2.572788 0.142746
v 1.951472 2.572307 0.152010
v 1.950697 2.572788 0.161273
v 1.948401 2.574214 0.170181
v 1.944674 2.576529 0.178390
v 1.939657 2.579645 0.185585
v 1.933545 2.583441 0.191490
v 1.926571 2.587772 0.195878
v 1.919004 2.592472 0.198580
v 1.343961 1.684132 0.199493
v 1.336092 1.689020 0.198580
v 1.328525 1.693719 0.195878
v 1.321551 1.698050 0.191490
v 1.315439 1.701847 0.185585
v 1.310422 1.704962 0.178390
v 1.306695 1.707277 0.170180
v 1.304399 1.708703 0.161273
v 1.303624 1.709184 0.152009
v 1.304399 1.708703 0.142746
v 1.306695 1.707277 0.133838
v 1.310422 1.704962 0.125629
v 1.315439 1.701847 0.118434
v 1.321551 1.698050 0.112529
v 1.328525 1.693719 0.108141
v 1.336092 1.689020 0.105439
v 1.343961 1.684132 0.104526
v 1.351830 1.679245 0.105439
v 1.359397 1.674545 0.108141
v 1.366371 1.670214 0.112529
v 1.372483 1.666418 0.118434
v 1.377500 1.663303 0.125629
v 1.381227 1.660987 0.133838
v 1.383523 1.659562 0.142746
v 1.384298 1.659081 0.152009
v 1.383523 1.659562 0.161273
v 1.381227 1.660987 0.170180
v 1.377500 1.663302 0.178389
v 1.372484 1.666418 0.185585
v 1.366371 1.670214 0.191490
v 1.359397 1.674545 0.195878
v 1.351831 1.679245 0.198580
v 1.911135 2.597359 0.152009
v 1.343961 1.684132 0.152009
vn -0.527590 -0.849499 -0.000000
vn 0.527590 0.849499 -0.000002
vn -0.527604 -0.849490 -0.000003
vn 0.527596 0.849496 -0.000001
vn -0.527596 -0.849495 0.000000
vn 0.527597 0.849495 -0.000000
vn -0.527586 -0.849502 0.000009
vn 0.527594 0.849497 -0.000003
vn -0.527604 -0.849491 -0.000012
vn 0.527594 0.849496 -0.000002
vn -0.527595 -0.849496 0.000002
vn 0.527592 0.849498 -0.000005
vn -0.527594 -0.849497 0.000007
vn 0.527593 0.849497 -0.000003
vn 0.527595 0.849496 0.000005
vn -0.527595 -0.849496 -0.000002
vn 0.527595 0.849496 0.000002
vn -0.527595 -0.849496 -0.000000
vn 0.527596 0.849496 -0.000004
vn -0.527592 -0.849498 -0.000008
vn 0.527594 0.849497 0.000001
vn -0.527604 -0.849491 0.000012
vn 0.527592 0.849498 0.000005
vn -0.527586 -0.849502 -0.000009
vn 0.527600 0.849493 -0.000005
vn -0.527592 -0.849498 -0.000004
vn 0.527591 0.849499 0.000002
vn -0.527610 -0.849487 0.000005
vn 0.527592 0.849498 0.000002
vn 0.527590 0.849499 0.000002
vn -0.527586 -0.849501 0.000001
vn -0.527595 -0.849496 -0.000003
vn -0.527599 -0.849494 -0.000007
vn 0.527587 0.849501 -0.000004
vn -0.527600 -0.849493 -0.000007
vn 0.527596 0.849496 0.000006
vn -0.527594 -0.849496 0.000002
vn 0.527592 0.849498 -0.000000
vn -0.527593 -0.849498 0.000007
vn 0.527594 0.849497 0.000004
vn -0.527595 -0.849496 -0.000005
vn 0.527592 0.849498 -0.000008
vn -0.527595 -0.849496 0.000005
vn -0.527596 -0.849495 0.000015
vn 0.527591 0.849499 0.000006
vn -0.527589 -0.849500 -0.000006
vn 0.527595 0.849496 -0.000005
vn -0.527590 -0.849499 -0.000003
vn 0.527590 0.849499 0.000003
vn 0.527592 0.849498 0.000001
vn -0.527587 -0.849501 -0.000002
vn 0.527601 0.849492 -0.000003
vn 0.527597 0.849495 -0.000002
vn 0.083264 -0.051713 -0.995185
vn 0.246594 -0.153151 -0.956941
vn 0.400455 -0.248709 -0.881918
vn 0.538919 -0.334704 -0.773007
vn 0.656668 -0.407834 -0.634396
vn 0.749191 -0.465297 -0.471393
vn 0.812917 -0.504875 -0.290287
vn 0.845406 -0.525053 -0.098017
vn 0.845406 -0.525053 0.098021
vn 0.812920 -0.504877 0.290277
vn 0.749186 -0.465294 0.471405
vn 0.656671 -0.407836 0.634392
vn 0.538918 -0.334703 0.773008
vn 0.400449 -0.248705 0.881922
vn 0.246595 -0.153152 0.956941
vn 0.083265 -0.051713 0.995185
vn -0.083264 0.051712 0.995185
vn -0.246596 0.153152 0.956940
vn -0.400451 0.248706 0.881921
vn -0.538914 0.334701 0.773012
vn -0.656668 0.407834 0.634397
vn -0.749187 0.465295 0.471401
vn -0.812918 0.504876 0.290282
vn -0.845406 0.525053 0.098023
vn -0.845406 0.525053 -0.098017
vn -0.812918 0.504876 -0.290285
vn -0.749188 0.465295 -0.471400
vn -0.656675 0.407838 -0.634386
vn -0.538915 0.334702 -0.773010
vn -0.400451 0.248706 -0.881921
vn -0.246598 0.153154 -0.956940
vn -0.083265 0.051713 -0.995185
usemtl (null)
s off
f 65//1 1//1 2//1
f 66//2 34//2 33//2
f 65//3 2//3 3//3
f 66//4 35//4 34//4
f 65//5 3//5 4//5
f 66//6 36//6 35//6
f 65//7 4//7 5//7
f 66//8 37//8 36//8
f 65//9 5//9 6//9
f 66//10 38//10 37//10
f 65//11 6//11 7//11
f 66//12 39//12 38//12
f 65//13 7//13 8//13
f 66//14 40//14 39//14
f 65//11 8//11 9//11
f 66//15 41//15 40//15
f 65//16 9//16 10//16
f 66//17 42//17 41//17
f 65//18 10//18 11//18
f 66//19 43//19 42//19
f 65//20 11//20 12//20
f 66//21 44//21 43//21
f 65//22 12//22 13//22
f 66//23 45//23 44//23
f 65//24 13//24 14//24
f 66//25 46//25 45//25
f 65//26 14//26 15//26
f 66//27 47//27 46//27
f 65//28 15//28 16//28
f 66//29 48//29 47//29
f 65//1 16//1 17//1
f 66//30 49//30 48//30
f 65//1 17//1 18//1
f 66//17 50//17 49//17
f 65//31 18//31 19//31
f 66//17 51//17 50//17
f 65//32 19//32 20//32
f 66//17 52//17 51//17
f 65//33 20//33 21//33
f 66//34 53//34 52//34
f 65//35 21//35 22//35
f 66//36 54//36 53//36
f 65//37 22//37 23//37
f 66//38 55//38 54//38
f 65//39 23//39 24//39
f 66//40 56//40 55//40
f 65//41 24//41 25//41
f 66//42 57//42 56//42
f 65//43 25//43 26//43
f 66//29 58//29 57//29
f 65//44 26//44 27//44
f 66//45 59//45 58//45
f 65//46 27//46 28//46
f 66//47 60//47 59//47
f 65//48 28//48 29//48
f 66//49 61//49 60//49
f 65//11 29//11 30//11
f 66//50 62//50 61//50
f 65//11 30//11 31//11
f 66//27 63//27 62//27
f 65//51 31//51 32//51
f 66//52 64//52 63//52
f 32//18 1//18 65//18
f 66//53 33//53 64//53
f 1//54 33//54 34//54
f 1//54 34//54 2//54
f 2//55 34//55 35//55
f 2//55 35//55 3//55
f 3//56 35//56 36//56
f 3//56 36//56 4//56
f 4//57 36//57 37//57
f 4//57 37//57 5//57
f 5//58 37//58 38//58
f 5//58 38//58 6//58
f 6//59 38//59 39//59
f 6//59 39//59 7//59
f 7//60 39//60 40//60
f 7//60 40//60 8//60
f 8//61 40//61 41//61
f 8//61 41//61 9//61
f 9//62 41//62 42//62
f 9//62 42//62 10//62
f 10//63 42//63 43//63
f 10//63 43//63 11//63
f 11//64 43//64 44//64
f 11//64 44//64 12//64
f 12//65 44//65 45//65
f 12//65 45//65 13//65
f 13//66 45//66 46//66
f 13//66 46//66 14//66
f 14//67 46//67 47//67
f 14//67 47//67 15//67
f 15//68 47//68 48//68
f 15//68 48//68 16//68
f 16//69 48//69 49//69
f 16//69 49//69 17//69
f 17//70 49//70 50//70
f 17//70 50//70 18//70
f 18//71 50//71 51//71
f 18//71 51//71 19//71
f 19//72 51//72 52//72
f 19//72 52//72 20//72
f 20//73 52//73 53//73
f 20//73 53//73 21//73
f 21//74 53//74 54//74
f 21//74 54//74 22//74
f 22//75 54//75 55//75
f 22//75 55//75 23//75
f 23//76 55//76 56//76
f 23//76 56//76 24//76
f 24//77 56//77 57//77
f 24//77 57//77 25//77
f 25//78 57//78 58//78
f 25//78 58//78 26//78
f 26//79 58//79 59//79
f 26//79 59//79 27//79
f 27//80 59//80 60//80
f 27//80 60//80 28//80
f 28//81 60//81 61//81
f 28//81 61//81 29//81
f 29//82 61//82 62//82
f 29//82 62//82 30//82
f 30//83 62//83 63//83
f 30//83 63//83 31//83
f 31//84 63//84 64//84
f 31//84 64//84 32//84
f 33//85 1//85 32//85
f 33//85 32//85 64//85
